<?xml version="1.0" standalone="no"?>
<!DOCTYPE svg PUBLIC "-//W3C//DTD SVG 20010904//EN"
 "http://www.w3.org/TR/2001/REC-SVG-20010904/DTD/svg10.dtd">
<svg version="1.0" xmlns="http://www.w3.org/2000/svg"
 width="370.000000pt" height="370.000000pt" viewBox="0 0 370.000000 370.000000"
 preserveAspectRatio="xMidYMid meet">

<g transform="translate(0.000000,370.000000) scale(0.100000,-0.100000)"
fill="#000000" stroke="none">
<path d="M1690 3636 c-436 -93 -717 -471 -678 -913 10 -112 38 -205 96 -318
38 -74 65 -108 147 -190 69 -69 123 -113 175 -142 263 -147 576 -147 840 0
114 64 261 215 322 332 82 159 111 303 97 481 -29 346 -287 649 -629 739 -88
23 -286 28 -370 11z"/>
<path d="M1136 1994 c-296 -150 -554 -428 -744 -801 -96 -188 -171 -395 -207
-572 -33 -163 37 -301 190 -372 124 -58 485 -128 855 -166 222 -23 1031 -26
1255 -5 287 27 515 66 715 124 171 49 249 100 294 190 37 74 35 151 -8 320
-98 388 -294 744 -556 1009 -115 117 -231 203 -366 271 l-101 52 -49 -42 c-63
-53 -198 -116 -310 -144 -76 -20 -115 -23 -264 -23 -151 0 -187 3 -260 23
-109 30 -233 89 -292 141 -25 23 -50 41 -55 41 -4 0 -48 -21 -97 -46z"/>
</g>
</svg>
