<?xml version="1.0" standalone="no"?>
<!DOCTYPE svg PUBLIC "-//W3C//DTD SVG 20010904//EN"
 "http://www.w3.org/TR/2001/REC-SVG-20010904/DTD/svg10.dtd">
<svg version="1.0" xmlns="http://www.w3.org/2000/svg"
 width="150.000000pt" height="30.000000pt" viewBox="0 0 150.000000 30.000000"
 preserveAspectRatio="xMidYMid meet">
<metadata>
Created by potrace 1.16, written by Peter Selinger 2001-2019
</metadata>
<g transform="translate(0.000000,30.000000) scale(0.011719,-0.011719)"
fill="#000000" stroke="none">
<path d="M9010 2215 l0 -285 -580 0 -580 0 0 -340 0 -340 215 0 215 0 0 -565
0 -565 373 0 372 0 -3 830 -3 830 326 0 326 0 -34 -42 c-41 -51 -89 -144 -108
-213 -21 -74 -18 -247 5 -315 73 -218 207 -334 466 -405 143 -40 210 -66 221
-87 6 -10 9 -36 7 -56 -6 -79 -113 -91 -287 -33 -90 30 -220 91 -294 138 -21
13 -40 23 -42 21 -6 -6 -205 -481 -205 -489 0 -14 303 -157 389 -183 147 -46
248 -58 436 -54 158 4 176 7 261 36 300 102 469 321 468 607 -1 157 -54 285
-164 395 -94 94 -160 125 -434 205 -103 31 -142 60 -132 103 23 94 155 80 413
-43 l111 -53 75 176 c141 333 133 310 111 327 -39 31 -221 114 -304 139 -132
39 -204 49 -350 50 -106 0 -154 -5 -224 -22 -100 -25 -227 -82 -301 -136 l-50
-36 -3 345 -2 345 -345 0 -345 0 0 -285z"/>
<path d="M2706 2000 c-226 -36 -410 -132 -562 -293 -123 -131 -203 -282 -239
-453 -22 -101 -22 -330 -1 -429 81 -378 364 -664 739 -747 123 -27 343 -21
456 11 274 80 482 255 602 506 75 158 94 248 94 445 -1 140 -4 178 -24 250
-92 344 -357 609 -692 690 -97 24 -285 34 -373 20z m243 -730 c61 -30 98 -67
125 -122 53 -106 26 -244 -64 -321 -140 -119 -344 -73 -421 97 -21 46 -25 148
-8 193 55 147 234 222 368 153z"/>
<path d="M11148 1333 c-2 -335 0 -636 4 -670 16 -143 83 -277 194 -389 59 -60
90 -81 175 -123 123 -59 200 -80 329 -90 255 -19 405 5 585 94 193 95 289 208
346 405 18 61 19 108 19 722 l0 658 -365 0 -365 0 0 -579 0 -579 -25 -30 c-14
-16 -36 -33 -50 -36 -30 -8 -80 15 -95 43 -6 13 -10 221 -10 600 l0 581 -370
0 -369 0 -3 -607z"/>
<path d="M0 1025 l0 -905 370 0 370 0 2 448 3 449 201 -446 200 -446 422 -3
c237 -1 422 2 422 7 0 4 -99 213 -220 463 l-220 455 210 438 c116 241 210 439
210 441 0 2 -190 4 -423 4 l-423 0 -190 -422 -189 -423 -3 423 -2 422 -370 0
-370 0 0 -905z"/>
<path d="M4105 1918 c-6 -21 -265 -1751 -265 -1775 l0 -23 335 0 c184 0 335 3
335 8 -1 25 85 653 88 643 2 -6 43 -154 91 -328 l87 -318 219 -3 220 -2 90
330 c49 182 91 327 92 323 3 -10 93 -633 93 -645 0 -4 310 -8 689 -8 l690 0
15 53 c8 28 56 214 106 412 51 198 93 361 94 363 2 1 46 -168 99 -375 54 -208
102 -395 108 -416 l10 -37 391 0 c367 0 390 1 383 17 -3 10 -141 410 -305 888
-164 479 -302 878 -305 888 -7 16 -32 17 -378 15 l-370 -3 -281 -832 c-155
-457 -282 -829 -283 -825 -3 8 -243 1646 -243 1656 0 3 -154 5 -342 4 l-342
-3 -107 -344 c-59 -188 -109 -344 -111 -346 -2 -2 -52 154 -112 346 l-109 349
-339 0 c-262 0 -340 -3 -343 -12z"/>
</g>
</svg>
