<?xml version="1.0" standalone="no"?>
<!DOCTYPE svg PUBLIC "-//W3C//DTD SVG 20010904//EN"
 "http://www.w3.org/TR/2001/REC-SVG-20010904/DTD/svg10.dtd">
<svg version="1.0" xmlns="http://www.w3.org/2000/svg"
 width="432.000000pt" height="192.000000pt" viewBox="0 0 432.000000 192.000000"
 preserveAspectRatio="xMidYMid meet">

<g transform="translate(0.000000,192.000000) scale(0.100000,-0.100000)"
fill="#000000" stroke="none">
<path d="M30 965 l0 -315 1185 0 1185 0 0 315 0 315 -1185 0 -1185 0 0 -315z
m1700 161 l0 -55 28 15 c35 18 83 18 127 0 38 -16 41 -23 23 -61 -13 -28 -16
-29 -54 -15 -17 7 -31 7 -37 1 -5 -5 8 -14 35 -23 32 -11 48 -24 63 -50 19
-35 19 -38 2 -73 -31 -64 -125 -82 -207 -40 -30 16 -30 16 -14 48 9 18 17 33
18 34 1 1 20 -4 41 -12 22 -7 43 -11 47 -8 17 10 6 20 -32 32 -64 19 -84 67
-55 134 7 16 3 18 -41 15 l-49 -3 -2 -125 -1 -125 -56 -3 -56 -3 0 86 0 85
-35 0 -35 0 0 55 0 55 90 0 90 0 0 38 c0 21 3 42 7 45 3 4 28 7 55 7 l48 0 0
-54z m-1004 -42 c73 -35 105 -133 66 -204 -73 -133 -274 -82 -276 69 -2 109
111 182 210 135z m-385 -56 l0 -63 26 63 27 62 68 0 68 0 -34 -68 -34 -67 34
-65 c18 -36 33 -68 34 -72 0 -5 -29 -8 -65 -8 l-66 0 -29 63 -29 62 0 -62 -1
-63 -60 0 -60 0 0 140 0 140 60 0 60 0 1 -62z m640 7 c10 -30 19 -44 22 -35 3
8 11 32 17 53 11 37 12 37 65 37 l53 0 18 -120 c10 -66 21 -117 24 -113 4 5
25 59 46 121 l39 113 59 -3 58 -3 44 -125 c24 -69 44 -131 44 -138 0 -10 -15
-12 -57 -10 l-58 3 -16 60 c-17 63 -17 63 -39 -23 l-11 -43 -107 3 c-98 3
-107 5 -110 23 -1 11 -5 31 -9 45 -5 22 -7 20 -17 -20 -11 -42 -14 -45 -48
-48 -35 -3 -36 -2 -48 45 -11 38 -14 43 -17 23 -10 -70 -10 -70 -63 -70 -58 0
-56 -8 -35 134 25 160 18 147 77 144 l51 -3 18 -50z m1091 -37 c2 -54 7 -93
13 -93 6 0 11 39 13 93 l3 92 54 0 55 0 0 -108 c0 -121 -9 -144 -66 -168 -43
-18 -86 -18 -130 1 -49 20 -64 62 -64 180 l0 95 60 0 59 0 3 -92z"/>
<path d="M630 975 c-26 -32 13 -81 48 -59 34 22 22 74 -18 74 -10 0 -23 -7
-30 -15z"/>
<path d="M2695 969 c-41 -83 -75 -153 -75 -156 0 -2 19 -3 43 -1 l42 3 42 85
42 85 0 -88 1 -88 43 3 c42 3 42 3 87 88 l45 85 3 -87 3 -88 35 0 35 0 -3 153
-3 152 -43 0 -44 0 -41 -80 -42 -80 -3 83 -3 82 -45 0 -44 0 -75 -151z"/>
<path d="M3070 965 l0 -155 35 0 35 0 0 155 0 155 -35 0 -35 0 0 -155z"/>
<path d="M3174 1106 c-3 -8 -4 -25 -2 -38 2 -19 10 -23 46 -26 l42 -3 0 -115
0 -114 35 0 35 0 0 114 0 115 43 3 c41 3 42 4 42 38 l0 35 -118 3 c-95 2 -118
0 -123 -12z"/>
<path d="M3456 1104 c-12 -11 -16 -35 -16 -84 0 -82 8 -90 95 -90 53 0 56 -1
53 -22 -3 -21 -8 -23 -76 -23 l-72 0 0 -37 0 -38 88 0 c113 0 122 8 122 107 0
45 -5 74 -13 81 -7 6 -41 12 -75 14 -87 4 -78 22 13 26 l75 3 0 39 0 40 -89 0
c-68 0 -93 -4 -105 -16z"/>
<path d="M3682 994 l3 -126 33 -29 c27 -25 41 -29 87 -29 46 0 60 4 87 29 l33
29 3 127 4 126 -39 -3 -38 -3 -3 -109 c-3 -115 -10 -136 -46 -136 -40 0 -46
18 -46 137 l0 113 -41 0 -41 0 4 -126z"/>
<path d="M3970 965 l0 -156 38 3 37 3 0 150 0 150 -37 3 -38 3 0 -156z"/>
</g>
</svg>
